# xmcd CD database file
#
# Track frame offsets:
#	150
#	19935
#	40275
#	60180
#	83315
#	103155
#	118502
#	136462
#	154892
#	179697
#
# Disc length: 2597 seconds
#
# Revision: 2
# Processed by: cddbd v1.5.2PL0 Copyright (c) Steve Scherf et al.
# Submitted via: CDex 1.70beta2
#
DISCID=7c0a230a
DTITLE=陳奕迅 - eason：天佑愛人
DYEAR=1999
DGENRE=Pop
TTITLE0=昨曰
TTITLE1=今日
TTITLE2=每一個明天
TTITLE3=眼眉調
TTITLE4=一
TTITLE5=第五個現代化
TTITLE6=快高長大
TTITLE7=如果這一秒鐘你跟我講你不愛我
TTITLE8=我的世界末日
TTITLE9=貝多芬與我
EXTD=YEAR: 1999
EXTT0=
EXTT1=
EXTT2=
EXTT3=
EXTT4=
EXTT5=
EXTT6=
EXTT7=
EXTT8=
EXTT9=
PLAYORDER=
